<svg width="15" height="15" viewBox="0 0 15 15" fill="none" xmlns="http://www.w3.org/2000/svg">
<path d="M7.49998 0C4.74303 0 2.49997 2.24306 2.49997 5.00001C2.49997 5.82765 2.70689 6.64825 3.10026 7.3761L7.22655 14.8389C7.28148 14.9384 7.38616 15 7.49998 15C7.6138 15 7.71848 14.9384 7.77341 14.8389L11.9012 7.37364C12.2931 6.64825 12.5 5.82762 12.5 4.99998C12.5 2.24306 10.2569 0 7.49998 0ZM7.49998 7.5C6.1215 7.5 4.99999 6.37849 4.99999 5.00001C4.99999 3.62153 6.1215 2.50002 7.49998 2.50002C8.87846 2.50002 9.99997 3.62153 9.99997 5.00001C9.99997 6.37849 8.87846 7.5 7.49998 7.5Z" fill="black"/>
</svg>
