<svg width="62" height="62" viewBox="0 0 62 62" fill="none" xmlns="http://www.w3.org/2000/svg">
<g filter="url(#filter0_d_1_1090)">
<circle cx="31" cy="27" r="17" fill="white"/>
</g>
<g clip-path="url(#clip0_1_1090)">
<path d="M34.481 20H28.519C26.5786 20 25 21.5786 25 23.519V29.4811C25 31.4214 26.5786 33 28.519 33H34.4811C36.4214 33 38 31.4214 38 29.4811V23.519C38 21.5786 36.4214 20 34.481 20V20ZM37.2379 29.4811C37.2379 31.0012 36.0012 32.2379 34.481 32.2379H28.519C26.9988 32.2379 25.7621 31.0012 25.7621 29.4811V23.519C25.7621 21.9988 26.9988 20.7621 28.519 20.7621H34.4811C36.0012 20.7621 37.2379 21.9988 37.2379 23.519V29.4811Z" fill="black"/>
<path d="M31.5 22.9454C29.54 22.9454 27.9454 24.54 27.9454 26.5C27.9454 28.46 29.54 30.0546 31.5 30.0546C33.46 30.0546 35.0546 28.46 35.0546 26.5C35.0546 24.54 33.46 22.9454 31.5 22.9454ZM31.5 29.2925C29.9603 29.2925 28.7075 28.0398 28.7075 26.5C28.7075 24.9603 29.9603 23.7075 31.5 23.7075C33.0398 23.7075 34.2925 24.9603 34.2925 26.5C34.2925 28.0398 33.0398 29.2925 31.5 29.2925Z" fill="black"/>
<path d="M35.1396 21.683C34.5603 21.683 34.0892 22.1542 34.0892 22.7333C34.0892 23.3125 34.5603 23.7838 35.1396 23.7838C35.7188 23.7838 36.19 23.3125 36.19 22.7333C36.19 22.1541 35.7188 21.683 35.1396 21.683ZM35.1396 23.0215C34.9807 23.0215 34.8513 22.8922 34.8513 22.7333C34.8513 22.5743 34.9807 22.4451 35.1396 22.4451C35.2986 22.4451 35.4279 22.5743 35.4279 22.7333C35.4279 22.8922 35.2986 23.0215 35.1396 23.0215Z" fill="black"/>
</g>
<defs>
<filter id="filter0_d_1_1090" x="0" y="0" width="62" height="62" filterUnits="userSpaceOnUse" color-interpolation-filters="sRGB">
<feFlood flood-opacity="0" result="BackgroundImageFix"/>
<feColorMatrix in="SourceAlpha" type="matrix" values="0 0 0 0 0 0 0 0 0 0 0 0 0 0 0 0 0 0 127 0" result="hardAlpha"/>
<feOffset dy="4"/>
<feGaussianBlur stdDeviation="7"/>
<feColorMatrix type="matrix" values="0 0 0 0 0 0 0 0 0 0 0 0 0 0 0 0 0 0 0.15 0"/>
<feBlend mode="normal" in2="BackgroundImageFix" result="effect1_dropShadow_1_1090"/>
<feBlend mode="normal" in="SourceGraphic" in2="effect1_dropShadow_1_1090" result="shape"/>
</filter>
<clipPath id="clip0_1_1090">
<rect width="13" height="13" fill="white" transform="translate(25 20)"/>
</clipPath>
</defs>
</svg>
